<!-- <svg xmlns="http://www.w3.org/2000/svg" fill="none" class="icon icon-cart" viewBox="0 0 40 40"><path fill="currentColor" fill-rule="evenodd" d="M20.5 6.5a4.75 4.75 0 0 0-4.75 4.75v.56h-3.16l-.77 11.6a5 5 0 0 0 4.99 5.34h7.38a5 5 0 0 0 4.99-5.33l-.77-11.6h-3.16v-.57A4.75 4.75 0 0 0 20.5 6.5m3.75 5.31v-.56a3.75 3.75 0 1 0-7.5 0v.56zm-7.5 1h7.5v.56a3.75 3.75 0 1 1-7.5 0zm-1 0v.56a4.75 4.75 0 1 0 9.5 0v-.56h2.22l.71 10.67a4 4 0 0 1-3.99 4.27h-7.38a4 4 0 0 1-4-4.27l.72-10.67z"/></svg> -->

<svg width="27" height="27" viewBox="0 0 27 27" fill="none" xmlns="http://www.w3.org/2000/svg">
<path d="M1 8.8125H26L24.6029 24.1811C24.5092 25.2112 23.6455 26 22.6111 26H4.38893C3.35452 26 2.49079 25.2112 2.39714 24.1811L1 8.8125Z" stroke-width="2" stroke-linejoin="round"/>
<path d="M7.25 11.9375V7.25C7.25 3.79822 10.0482 1 13.5 1C16.9518 1 19.75 3.79822 19.75 7.25V11.9375" stroke-width="2" stroke-linecap="round"/>
</svg>
